<?xml version="1.0" encoding="UTF-8" standalone="no" ?>
<!DOCTYPE svg PUBLIC "-//W3C//DTD SVG 1.1//EN" "http://www.w3.org/Graphics/SVG/1.1/DTD/svg11.dtd">
<svg xmlns="http://www.w3.org/2000/svg" xmlns:xlink="http://www.w3.org/1999/xlink" version="1.1" width="1080" height="1080" viewBox="0 0 1080 1080" xml:space="preserve">
<desc>Created with Fabric.js 4.2.0</desc>
<defs>
</defs>
<g transform="matrix(1 0 0 1 540 540)" id="69184fce-e7b5-4c59-a831-21b0d2c494ea"  >
</g>
<g transform="matrix(1 0 0 1 540 540)" id="0874d7ca-f1f1-4ffd-af88-6a723fb8d223"  >
<rect style="stroke: none; stroke-width: 1; stroke-dasharray: none; stroke-linecap: butt; stroke-dashoffset: 0; stroke-linejoin: miter; stroke-miterlimit: 4; fill: rgb(255,255,255); fill-rule: nonzero; opacity: 1;" vector-effect="non-scaling-stroke"  x="-540" y="-540" rx="0" ry="0" width="1080" height="1080" />
</g>
<g transform="matrix(15.1 0 0 15.1 540.16 540.16)" id="9dd40f70-f0d5-4025-a325-a6a4fcddc106"  >
<circle style="stroke: rgb(0,0,0); stroke-width: 0; stroke-dasharray: none; stroke-linecap: butt; stroke-dashoffset: 0; stroke-linejoin: miter; stroke-miterlimit: 4; fill: rgb(19,118,255); fill-rule: nonzero; opacity: 1;" vector-effect="non-scaling-stroke"  cx="0" cy="0" r="35" />
</g>
<g transform="matrix(9.05 0 0 9.05 540 513.78)"  >
<g style="opacity: 1;" vector-effect="non-scaling-stroke"   >
		<g transform="matrix(1 0 0 1 -14.31 14.48)"  >
<path style="stroke: none; stroke-width: 1; stroke-dasharray: none; stroke-linecap: butt; stroke-dashoffset: 0; stroke-linejoin: miter; stroke-miterlimit: 4; fill: rgb(255,249,249); fill-rule: nonzero; opacity: 1;" vector-effect="non-scaling-stroke"  transform=" translate(-35.69, -64.48)" d="M 42.531 43.218 L 17.319 68.373 C 13.363999999999999 72.328 13.363999999999999 78.809 17.319 82.76400000000001 C 20.615 86.06000000000002 25.612 86.60900000000001 29.458 84.46700000000001 L 29.458 77.87400000000001 L 34.455 77.87400000000001 L 34.455 68.70200000000001 L 43.903 68.70200000000001 L 43.903 64.47300000000001 L 49.341 64.47300000000001 L 49.341 59.03500000000001 L 55.493 59.03500000000001 L 57.029 57.49900000000001 C 53.73500000000001 56.45400000000001 50.550000000000004 54.58600000000001 47.912000000000006 51.95000000000001 C 45.387 49.424 43.574 46.402 42.531 43.218 z" stroke-linecap="round" />
</g>
		<g transform="matrix(1 0 0 1 14.93 -15.05)"  >
<path style="stroke: none; stroke-width: 1; stroke-dasharray: none; stroke-linecap: butt; stroke-dashoffset: 0; stroke-linejoin: miter; stroke-miterlimit: 4; fill: rgb(255,249,249); fill-rule: nonzero; opacity: 1;" vector-effect="non-scaling-stroke"  transform=" translate(-64.93, -34.95)" d="M 79.551 20.313 C 71.475 12.241 58.349000000000004 12.241 50.274 20.313 C 42.202 28.387 42.202 41.516 50.274 49.589 C 58.349000000000004 57.663 71.475 57.663 79.551 49.589 C 87.68 41.515 87.68 28.387 79.551 20.313 z M 75.267 32.671 C 73.068 34.924 69.443 34.924 67.191 32.671 C 64.99600000000001 30.474 64.99600000000001 26.85 67.191 24.599 C 69.443 22.4 73.068 22.4 75.267 24.599 C 77.519 26.85 77.519 30.474 75.267 32.671 z" stroke-linecap="round" />
</g>
</g>
</g>
</svg>